{"title":"Chilly Christmas 2012 DVDRip x264 AAC-UNiQUE","uid":7799261,"size":1524426068,"categoryP":"video","categoryS":"movies","magnet":"?xt=urn:btih:530c1ca7b52f6315efb730b034311939532e6c23&amp;dn=+Chilly+Christmas+2012+DVDRip+x264+AAC-UNiQUE&amp;tr=udp%3A%2F%2Ftracker.openbittorrent.com%3A80&amp;tr=udp%3A%2F%2Fopen.demonii.com%3A1337&amp;tr=udp%3A%2F%2Ftracker.coppersurfer.tk%3A6969&amp;tr=udp%3A%2F%2Fexodus.desync.com%3A6969","seeders":0,"leechers":0,"uploader":"Acesn8s","files":-1,"time":1352237652,"description":"Complete name : Chilly Christmas 2012 DVDRip x264 AAC-UNiQUE.mp4\nFormat : MPEG-4\nFormat profile : Base Media\nCodec ID : isom\nFile size : 1.39 GiB\nDuration : 1h 24mn\nOverall bit rate mode : Variable\nOverall bit rate : 2 350 Kbps\nEncoded date : UTC 2012-11-06 13:37:48\n\nVideo\nID : 1\nFormat : AVC\nFormat/Info : Advanced Video Codec\nFormat profile : &lt;a class=&quot;__cf_email__&quot; href=&quot;/cdn-cgi/l/email-protection&quot; data-cfemail=&quot;1951707e7159552d3728&quot;&gt;[email&amp;#160;protected]&lt;/a&gt;&lt;script cf-hash='f9e31' type=&quot;text/javascript&quot;&gt;\n/* &lt;![CDATA[ */!function(){try{var t=&quot;currentScript&quot;in document?document.currentScript:function(){for(var t=document.getElementsByTagName(&quot;script&quot;),e=t.length;e--;)if(t[e].getAttribute(&quot;cf-hash&quot;))return t[e]}();if(t&amp;&amp;t.previousSibling){var e,r,n,i,c=t.previousSibling,a=c.getAttribute(&quot;data-cfemail&quot;);if(a){for(e=&quot;&quot;,r=parseInt(a.substr(0,2),16),n=2;a.length-n;n+=2)i=parseInt(a.substr(n,2),16)^r,e+=String.fromCharCode(i);e=document.createTextNode(e),c.parentNode.replaceChild(e,c)}}}catch(u){}}();/* ]]&gt; */&lt;/script&gt;\nFormat settings, CABAC : Yes\nFormat settings, ReFrames : 3 frames\nCodec ID : avc1\nCodec ID/Info : Advanced Video Coding\nDuration : 1h 24mn\nBit rate mode : Variable\nBit rate : 2 000 Kbps\nMaximum bit rate : 40.0 Mbps\nWidth : 720 pixels\nHeight : 400 pixels\nDisplay aspect ratio : 16:9\nFrame rate mode : Constant\nFrame rate : 23.976 fps\nColor space : YUV\nChroma subsampling : 4:2:0\nBit depth : 8 bits\nScan type : Progressive\nBits/(Pixel*Frame) : 0.290\nStream size : 1.18 GiB (85%)\nWriting library : x264 core 128 r2216 198a7ea\n\nAudio\nID : 2\nFormat : AAC\nFormat/Info : Advanced Audio Codec\nFormat profile : LC\nCodec ID : 40\nDuration : 1h 24mn\nBit rate mode : Variable\nBit rate : 353 Kbps\nMaximum bit rate : 383 Kbps\nChannel(s) : 6 channels\nChannel positions : Front: L C R, Side: L R, LFE\nSampling rate : 48.0 KHz\nCompression mode : Lossy\nStream size : 209 MiB (15%)\nLanguage : English\nEncoded date : UTC 2012-11-06 13:38:20\n\nSource : COMPLETE.NTSC.DVDR-KART3LDVD - Thanks!\n\nStoryline\nTom Arnold and C. Thomas Howell headline this family-friendly tale of a Sol Cal kid who must train his dog for apartment living after his dad gets a job offer in New York City, but finds the process interrupted by a nefarious dognapper intent on abducting his four-legged friend.\n\niMDB: http://www.imdb.com/title/tt2232446/\n\nScreens\n &lt;a href=&quot;\nhttp://www.shotpix.com/images/56928090076359515924.png&quot; rel=&quot;nofollow&quot; target=&quot;_NEW&quot;&gt;\nhttp://www.shotpix.com/images/56928090076359515924.png&lt;/a&gt; &lt;a href=&quot;\nhttp://www.shotpix.com/images/51002396988852574610.png&quot; rel=&quot;nofollow&quot; target=&quot;_NEW&quot;&gt;\nhttp://www.shotpix.com/images/51002396988852574610.png&lt;/a&gt; &lt;a href=&quot;\nhttp://www.shotpix.com/images/93423480160488110063.png&quot; rel=&quot;nofollow&quot; target=&quot;_NEW&quot;&gt;\nhttp://www.shotpix.com/images/93423480160488110063.png&lt;/a&gt; &lt;a href=&quot;\nhttp://www.shotpix.com/images/20510184411605065374.png&quot; rel=&quot;nofollow&quot; target=&quot;_NEW&quot;&gt;\nhttp://www.shotpix.com/images/20510184411605065374.png&lt;/a&gt;\n","torrent":{"xt":"urn:btih:530c1ca7b52f6315efb730b034311939532e6c23","amp;dn":"+Chilly+Christmas+2012+DVDRip+x264+AAC-UNiQUE","amp;tr":["udp%3A%2F%2Ftracker.openbittorrent.com%3A80","udp%3A%2F%2Fopen.demonii.com%3A1337","udp%3A%2F%2Ftracker.coppersurfer.tk%3A6969","udp%3A%2F%2Fexodus.desync.com%3A6969"],"infoHash":"530c1ca7b52f6315efb730b034311939532e6c23","infoHashBuffer":{"type":"Buffer","data":[83,12,28,167,181,47,99,21,239,183,48,176,52,49,25,57,83,46,108,35]},"announce":[],"urlList":[]}}